<?xml version="1.0" encoding="UTF-8"?>
<svg width="162px" height="162px" viewBox="0 0 162 162" version="1.1" xmlns="http://www.w3.org/2000/svg" xmlns:xlink="http://www.w3.org/1999/xlink">
    <!-- Generator: Sketch 52.5 (67469) - http://www.bohemiancoding.com/sketch -->
    <title>Logo</title>
    <desc>Created with Sketch.</desc>
    <defs>
        <linearGradient x1="0%" y1="0%" x2="93.3679043%" y2="94.5460986%" id="linearGradient-1">
            <stop stop-color="#FFFFFF" offset="0%"></stop>
            <stop stop-color="#C1C1C1" offset="100%"></stop>
        </linearGradient>
    </defs>
    <g id="Logo" stroke="none" stroke-width="1" fill="none" fill-rule="evenodd">
        <g id="logonew" opacity="0.977807971" transform="translate(81.000000, 81.000000) rotate(180.000000) translate(-81.000000, -81.000000) translate(24.000000, 24.000000)" fill="url(#linearGradient-1)">
            <path d="M0.239782938,0 C0.239782938,0 -0.51382058,40.1503054 7.98134635,48.098843 C14.1129386,55.3000822 33.1928095,56.794679 45.5930128,56.9984877 C51.8958786,57.100392 57.0340844,52.0391437 56.9998297,45.7890116 C56.9313203,33.4246197 55.5611321,14.3345422 48.367644,8.18631438 C40.4205523,-0.373649204 0,0.407617314 0,0.407617314" id="Shape"></path>
            <path d="M114,0.239782938 C114,0.239782938 73.8496946,-0.51382058 65.901157,7.98134635 C58.6999178,14.1471933 57.205321,33.2270642 57.0015123,45.5930128 C56.899608,51.8958786 61.9608563,57.0340844 68.2109884,56.9998297 C80.5753803,56.9313203 99.6654578,55.5611321 105.813686,48.367644 C114.339681,40.4205523 113.558415,0 113.558415,0" id="Shape"></path>
            <path d="M0.239782938,57 C0.239782938,57 -0.51382058,97.1503054 7.98134635,105.098843 C14.1129386,112.300082 33.1928095,113.794679 45.5930128,113.998488 C51.8958786,114.100392 57.0340844,109.039144 56.9998297,102.789012 C56.9313203,90.4246197 55.5611321,71.3345422 48.367644,65.1863144 C40.4205523,56.6263508 -2.84217094e-14,57.4076173 -2.84217094e-14,57.4076173" id="Shape" transform="translate(28.500000, 85.500000) scale(1, -1) translate(-28.500000, -85.500000) "></path>
            <path d="M114,57.2397829 C114,57.2397829 73.8496946,56.4861794 65.901157,64.9813463 C58.6999178,71.1471933 57.205321,90.2270642 57.0015123,102.593013 C56.899608,108.895879 61.9608563,114.034084 68.2109884,113.99983 C80.5753803,113.93132 99.6654578,112.561132 105.813686,105.367644 C114.339681,97.4205523 113.558415,57 113.558415,57" id="Shape" transform="translate(85.500000, 85.500000) scale(1, -1) translate(-85.500000, -85.500000) "></path>
        </g>
        <g id="logonew" opacity="0.800000012" transform="translate(81.000000, 81.000000) rotate(45.000000) translate(-81.000000, -81.000000) translate(24.000000, 24.000000)" fill="url(#linearGradient-1)">
            <path d="M0.239782938,0 C0.239782938,0 -0.51382058,40.1503054 7.98134635,48.098843 C14.1129386,55.3000822 33.1928095,56.794679 45.5930128,56.9984877 C51.8958786,57.100392 57.0340844,52.0391437 56.9998297,45.7890116 C56.9313203,33.4246197 55.5611321,14.3345422 48.367644,8.18631438 C40.4205523,-0.373649204 0,0.407617314 0,0.407617314" id="Shape"></path>
            <path d="M114,0.239782938 C114,0.239782938 73.8496946,-0.51382058 65.901157,7.98134635 C58.6999178,14.1471933 57.205321,33.2270642 57.0015123,45.5930128 C56.899608,51.8958786 61.9608563,57.0340844 68.2109884,56.9998297 C80.5753803,56.9313203 99.6654578,55.5611321 105.813686,48.367644 C114.339681,40.4205523 113.558415,0 113.558415,0" id="Shape"></path>
            <path d="M0.239782938,57 C0.239782938,57 -0.51382058,97.1503054 7.98134635,105.098843 C14.1129386,112.300082 33.1928095,113.794679 45.5930128,113.998488 C51.8958786,114.100392 57.0340844,109.039144 56.9998297,102.789012 C56.9313203,90.4246197 55.5611321,71.3345422 48.367644,65.1863144 C40.4205523,56.6263508 -2.84217094e-14,57.4076173 -2.84217094e-14,57.4076173" id="Shape" transform="translate(28.500000, 85.500000) scale(1, -1) translate(-28.500000, -85.500000) "></path>
            <path d="M114,57.2397829 C114,57.2397829 73.8496946,56.4861794 65.901157,64.9813463 C58.6999178,71.1471933 57.205321,90.2270642 57.0015123,102.593013 C56.899608,108.895879 61.9608563,114.034084 68.2109884,113.99983 C80.5753803,113.93132 99.6654578,112.561132 105.813686,105.367644 C114.339681,97.4205523 113.558415,57 113.558415,57" id="Shape" transform="translate(85.500000, 85.500000) scale(1, -1) translate(-85.500000, -85.500000) "></path>
        </g>
    </g>
</svg>