{
  "accessors": [
    {
      "bufferView": 2,
      "componentType": 5126,
      "count": 4,
      "max": [
        -0.24467000365257263,
        1.9457659721374512,
        7.34606409072876
      ],
      "min": [
        -0.633808970451355,
        1.7161370515823364,
        7.061130046844482
      ],
      "type": "VEC3"
    },
    {
      "bufferView": 2,
      "byteOffset": 48,
      "componentType": 5126,
      "count": 4,
      "max": [
        0.10252197831869125,
        0.8786869049072266,
        0.7431836128234863
      ],
      "min": [
        -0.038831017911434174,
        0.6677637100219727,
        0.47419193387031555
      ],
      "type": "VEC3"
    },
    {
      "bufferView": 1,
      "componentType": 5126,
      "count": 4,
      "max": [
        0.1393599957227707,
        0.8189240097999573
      ],
      "min": [
        0.10459200292825699,
        0.7826489806175232
      ],
      "type": "VEC2"
    },
    {
      "bufferView": 0,
      "componentType": 5125,
      "count": 6,
      "type": "SCALAR"
    },
    {
      "bufferView": 2,
      "byteOffset": 96,
      "componentType": 5126,
      "count": 320,
      "max": [
        1.8530189990997314,
        2.2162129878997803,
        10.351561546325684
      ],
      "min": [
        -1.9454879760742188,
        -2.3789288997650146,
        -0.17418399453163147
      ],
      "type": "VEC3"
    },
    {
      "bufferView": 2,
      "byteOffset": 3936,
      "componentType": 5126,
      "count": 320,
      "max": [
        0.9960530996322632,
        0.999548614025116,
        0.9142478704452515
      ],
      "min": [
        -0.9868034720420837,
        -0.9996035099029541,
        -0.9980658888816833
      ],
      "type": "VEC3"
    },
    {
      "bufferView": 1,
      "byteOffset": 32,
      "componentType": 5126,
      "count": 320,
      "max": [
        0.0,
        0.0
      ],
      "min": [
        0.0,
        0.0
      ],
      "type": "VEC2"
    },
    {
      "bufferView": 0,
      "byteOffset": 24,
      "componentType": 5125,
      "count": 3030,
      "type": "SCALAR"
    },
    {
      "bufferView": 2,
      "byteOffset": 7776,
      "componentType": 5126,
      "count": 909,
      "max": [
        1.1770319938659668,
        3.0421431064605713,
        10.55882453918457
      ],
      "min": [
        -3.1974830627441406,
        -1.4874969720840454,
        0.5613890290260315
      ],
      "type": "VEC3"
    },
    {
      "bufferView": 2,
      "byteOffset": 18684,
      "componentType": 5126,
      "count": 909,
      "max": [
        0.9983109831809998,
        0.999872624874115,
        0.8911577463150024
      ],
      "min": [
        -0.9983277320861816,
        -0.9975703358650208,
        -0.8507766723632813
      ],
      "type": "VEC3"
    },
    {
      "bufferView": 1,
      "byteOffset": 2592,
      "componentType": 5126,
      "count": 909,
      "max": [
        0.9920570254325867,
        0.9270650148391724
      ],
      "min": [
        0.5522220134735107,
        0.08819299936294556
      ],
      "type": "VEC2"
    },
    {
      "bufferView": 0,
      "byteOffset": 12144,
      "componentType": 5125,
      "count": 4494,
      "type": "SCALAR"
    },
    {
      "bufferView": 2,
      "byteOffset": 29592,
      "componentType": 5126,
      "count": 12554,
      "max": [
        1.8959039449691772,
        2.2407450675964355,
        10.633744239807129
      ],
      "min": [
        -3.3092610836029053,
        -2.4204421043395996,
        -0.17418399453163147
      ],
      "type": "VEC3"
    },
    {
      "bufferView": 2,
      "byteOffset": 180240,
      "componentType": 5126,
      "count": 12554,
      "max": [
        0.999937891960144,
        0.9997429847717285,
        0.9999843835830688
      ],
      "min": [
        -0.999933660030365,
        -0.9997460246086121,
        -0.9999833703041077
      ],
      "type": "VEC3"
    },
    {
      "bufferView": 1,
      "byteOffset": 9864,
      "componentType": 5126,
      "count": 12554,
      "max": [
        0.5459480285644531,
        0.39443299174308777
      ],
      "min": [
        0.04279499873518944,
        0.024598000571131706
      ],
      "type": "VEC2"
    },
    {
      "bufferView": 0,
      "byteOffset": 30120,
      "componentType": 5125,
      "count": 17136,
      "type": "SCALAR"
    },
    {
      "bufferView": 2,
      "byteOffset": 330888,
      "componentType": 5126,
      "count": 1729,
      "max": [
        3.608720064163208,
        4.543053150177002,
        11.989051818847656
      ],
      "min": [
        -3.273538112640381,
        -3.7561259269714355,
        -0.17418399453163147
      ],
      "type": "VEC3"
    },
    {
      "bufferView": 2,
      "byteOffset": 351636,
      "componentType": 5126,
      "count": 1729,
      "max": [
        0.9960530996322632,
        0.999548614025116,
        0.9999752640724182
      ],
      "min": [
        -0.9986744523048401,
        -0.9996035099029541,
        -0.9980658888816833
      ],
      "type": "VEC3"
    },
    {
      "bufferView": 1,
      "byteOffset": 110296,
      "componentType": 5126,
      "count": 1729,
      "max": [
        0.9701830148696899,
        0.9852030277252197
      ],
      "min": [
        0.025669999420642853,
        0.022637000307440758
      ],
      "type": "VEC2"
    },
    {
      "bufferView": 0,
      "byteOffset": 98664,
      "componentType": 5125,
      "count": 7662,
      "type": "SCALAR"
    }
  ],
  "asset": {
    "extras": {
      "author": "_j.did (https://sketchfab.com/j.did)",
      "license": "CC-BY-4.0 (http://creativecommons.org/licenses/by/4.0/)",
      "source": "https://sketchfab.com/3d-models/hibiscous-flower-b3cd2a88889c4ca3ab2a3de29e60de94",
      "title": "Hibiscous Flower"
    },
    "generator": "Sketchfab-12.68.0",
    "version": "2.0"
  },
  "bufferViews": [
    {
      "buffer": 0,
      "byteLength": 129312,
      "name": "floatBufferViews",
      "target": 34963
    },
    {
      "buffer": 0,
      "byteLength": 124128,
      "byteOffset": 129312,
      "byteStride": 8,
      "name": "floatBufferViews",
      "target": 34962
    },
    {
      "buffer": 0,
      "byteLength": 372384,
      "byteOffset": 253440,
      "byteStride": 12,
      "name": "floatBufferViews",
      "target": 34962
    }
  ],
  "buffers": [
    {
      "byteLength": 625824,
      "uri": "scene.bin"
    }
  ],
  "images": [
    {
      "uri": "textures/lambert2SG_baseColor.jpeg"
    },
    {
      "uri": "textures/lambert3SG_baseColor.jpeg"
    }
  ],
  "materials": [
    {
      "doubleSided": true,
      "name": "lambert2SG",
      "pbrMetallicRoughness": {
        "baseColorTexture": {
          "index": 0
        },
        "metallicFactor": 0.0,
        "roughnessFactor": 0.6
      }
    },
    {
      "doubleSided": true,
      "name": "lambert3SG",
      "pbrMetallicRoughness": {
        "baseColorTexture": {
          "index": 1
        },
        "metallicFactor": 0.0,
        "roughnessFactor": 0.6
      }
    }
  ],
  "meshes": [
    {
      "name": "Object_0",
      "primitives": [
        {
          "attributes": {
            "NORMAL": 1,
            "POSITION": 0,
            "TEXCOORD_0": 2
          },
          "indices": 3,
          "material": 1,
          "mode": 4
        }
      ]
    },
    {
      "name": "Object_1",
      "primitives": [
        {
          "attributes": {
            "NORMAL": 5,
            "POSITION": 4,
            "TEXCOORD_0": 6
          },
          "indices": 7,
          "material": 0,
          "mode": 4
        }
      ]
    },
    {
      "name": "Object_2",
      "primitives": [
        {
          "attributes": {
            "NORMAL": 9,
            "POSITION": 8,
            "TEXCOORD_0": 10
          },
          "indices": 11,
          "material": 0,
          "mode": 4
        }
      ]
    },
    {
      "name": "Object_3",
      "primitives": [
        {
          "attributes": {
            "NORMAL": 13,
            "POSITION": 12,
            "TEXCOORD_0": 14
          },
          "indices": 15,
          "material": 0,
          "mode": 4
        }
      ]
    },
    {
      "name": "Object_4",
      "primitives": [
        {
          "attributes": {
            "NORMAL": 17,
            "POSITION": 16,
            "TEXCOORD_0": 18
          },
          "indices": 19,
          "material": 0,
          "mode": 4
        }
      ]
    }
  ],
  "nodes": [
    {
      "children": [
        1
      ],
      "matrix": [
        1.0,
        0.0,
        0.0,
        0.0,
        0.0,
        2.220446049250313e-16,
        -1.0,
        0.0,
        0.0,
        1.0,
        2.220446049250313e-16,
        0.0,
        0.0,
        0.0,
        0.0,
        1.0
      ],
      "name": "Sketchfab_model"
    },
    {
      "children": [
        2,
        3,
        4,
        5,
        6
      ],
      "name": "hibiscous.obj.cleaner.materialmerger.gles"
    },
    {
      "mesh": 0,
      "name": "Object_2"
    },
    {
      "mesh": 1,
      "name": "Object_3"
    },
    {
      "mesh": 2,
      "name": "Object_4"
    },
    {
      "mesh": 3,
      "name": "Object_5"
    },
    {
      "mesh": 4,
      "name": "Object_6"
    }
  ],
  "samplers": [
    {
      "magFilter": 9729,
      "minFilter": 9987,
      "wrapS": 10497,
      "wrapT": 10497
    }
  ],
  "scene": 0,
  "scenes": [
    {
      "name": "Sketchfab_Scene",
      "nodes": [
        0
      ]
    }
  ],
  "textures": [
    {
      "sampler": 0,
      "source": 0
    },
    {
      "sampler": 0,
      "source": 1
    }
  ]
}
